<svg version="1.1" id="Layer_1" xmlns="http://www.w3.org/2000/svg" xmlns:xlink="http://www.w3.org/1999/xlink" x="0px" y="0px"
	 width="100%" viewBox="0 0 512 512" enable-background="new 0 0 512 512" xml:space="preserve">
<path fill="#FFFFFF" opacity="1.000000" stroke="none" 
	d="
M513.000000,204.000000 
	C513.000000,307.308228 513.000000,410.116455 513.000000,512.962341 
	C342.400085,512.962341 171.800186,512.962341 1.100134,512.962341 
	C1.100134,342.441803 1.100134,171.883514 1.100134,1.162619 
	C171.666534,1.162619 342.333252,1.162619 513.000000,1.162619 
	C513.000000,68.533112 513.000000,136.016556 513.000000,204.000000 
M72.073219,299.500000 
	C72.073219,305.331909 72.073204,311.163788 72.073219,316.995697 
	C72.073280,338.989502 72.012810,360.983490 72.093895,382.977020 
	C72.151550,398.615906 77.982910,411.380676 90.995613,420.635956 
	C92.385796,421.624725 93.314842,424.112091 93.393593,425.949890 
	C93.771255,434.763763 93.416847,443.617371 93.994339,452.412750 
	C95.597565,476.830383 122.390923,492.028992 144.343201,481.170166 
	C158.595306,474.120270 164.547714,462.143250 164.685516,446.758545 
	C164.741470,440.511292 164.694748,434.263123 164.694748,428.082703 
	C226.642990,428.082703 287.896179,428.082703 349.909363,428.082703 
	C349.909363,436.286591 349.506042,444.268402 349.990723,452.195953 
	C351.105774,470.434998 366.056854,484.235046 384.705719,484.724640 
	C402.760712,485.198669 418.663666,471.170654 420.090668,452.933990 
	C420.803589,443.823212 420.438934,434.631683 420.778290,425.484711 
	C420.836609,423.912964 421.535583,421.734283 422.696442,420.930389 
	C436.508514,411.366364 442.112335,398.041840 442.058350,381.558350 
	C441.897980,332.572693 442.000916,283.586182 442.000916,234.599991 
	C442.000916,232.778580 442.000916,230.957184 442.000916,229.022339 
	C443.173065,228.753632 444.115417,228.470001 445.078644,228.326874 
	C460.031464,226.104935 469.778961,215.630646 470.210876,200.761627 
	C470.501007,190.773865 470.298004,180.770004 470.223511,170.774048 
	C470.174438,164.190186 467.728760,158.487427 463.516174,153.475876 
	C457.944763,146.847778 450.562347,143.929016 442.000580,143.271957 
	C442.000580,129.120041 441.965088,115.297806 442.012604,101.475853 
	C442.046356,91.661003 438.718201,83.261703 431.721069,76.356079 
	C421.174103,65.947113 407.802979,60.945847 393.970520,57.037544 
	C364.948517,48.837521 335.115448,46.240227 305.154297,44.979317 
	C252.371384,42.757965 199.640717,42.793102 147.268402,51.056316 
	C129.175949,53.910904 111.400482,58.114902 95.084381,66.982346 
	C79.520256,75.441101 71.146217,87.878410 71.968323,106.185432 
	C72.519150,118.451660 72.073074,130.762665 72.073074,143.132904 
	C70.900856,143.394012 70.110733,143.632538 69.303146,143.740601 
	C54.311584,145.747040 44.291950,156.543854 43.914375,171.594269 
	C43.663773,181.583359 43.200825,191.656784 44.206070,201.552979 
	C44.778801,207.191269 47.276844,213.088516 50.393711,217.908310 
	C55.181641,225.312195 63.176327,228.122299 72.073219,228.727936 
	C72.073219,252.211014 72.073219,275.355499 72.073219,299.500000 
z"/>
<path fill="#010101" opacity="1.000000" stroke="none" 
	d="
M72.073219,299.000000 
	C72.073219,275.355499 72.073219,252.211014 72.073219,228.727936 
	C63.176327,228.122299 55.181641,225.312195 50.393711,217.908310 
	C47.276844,213.088516 44.778801,207.191269 44.206070,201.552979 
	C43.200825,191.656784 43.663773,181.583359 43.914375,171.594269 
	C44.291950,156.543854 54.311584,145.747040 69.303146,143.740601 
	C70.110733,143.632538 70.900856,143.394012 72.073074,143.132904 
	C72.073074,130.762665 72.519150,118.451660 71.968323,106.185432 
	C71.146217,87.878410 79.520256,75.441101 95.084381,66.982346 
	C111.400482,58.114902 129.175949,53.910904 147.268402,51.056316 
	C199.640717,42.793102 252.371384,42.757965 305.154297,44.979317 
	C335.115448,46.240227 364.948517,48.837521 393.970520,57.037544 
	C407.802979,60.945847 421.174103,65.947113 431.721069,76.356079 
	C438.718201,83.261703 442.046356,91.661003 442.012604,101.475853 
	C441.965088,115.297806 442.000580,129.120041 442.000580,143.271957 
	C450.562347,143.929016 457.944763,146.847778 463.516174,153.475876 
	C467.728760,158.487427 470.174438,164.190186 470.223511,170.774048 
	C470.298004,180.770004 470.501007,190.773865 470.210876,200.761627 
	C469.778961,215.630646 460.031464,226.104935 445.078644,228.326874 
	C444.115417,228.470001 443.173065,228.753632 442.000916,229.022339 
	C442.000916,230.957184 442.000916,232.778580 442.000916,234.599991 
	C442.000916,283.586182 441.897980,332.572693 442.058350,381.558350 
	C442.112335,398.041840 436.508514,411.366364 422.696442,420.930389 
	C421.535583,421.734283 420.836609,423.912964 420.778290,425.484711 
	C420.438934,434.631683 420.803589,443.823212 420.090668,452.933990 
	C418.663666,471.170654 402.760712,485.198669 384.705719,484.724640 
	C366.056854,484.235046 351.105774,470.434998 349.990723,452.195953 
	C349.506042,444.268402 349.909363,436.286591 349.909363,428.082703 
	C287.896179,428.082703 226.642990,428.082703 164.694748,428.082703 
	C164.694748,434.263123 164.741470,440.511292 164.685516,446.758545 
	C164.547714,462.143250 158.595306,474.120270 144.343201,481.170166 
	C122.390923,492.028992 95.597565,476.830383 93.994339,452.412750 
	C93.416847,443.617371 93.771255,434.763763 93.393593,425.949890 
	C93.314842,424.112091 92.385796,421.624725 90.995613,420.635956 
	C77.982910,411.380676 72.151550,398.615906 72.093895,382.977020 
	C72.012810,360.983490 72.073280,338.989502 72.073219,316.995697 
	C72.073204,311.163788 72.073219,305.331909 72.073219,299.000000 
M410.928436,170.816330 
	C402.959656,151.907394 388.277618,143.211075 368.204224,143.191666 
	C294.043518,143.119949 219.882126,142.998718 145.722198,143.250366 
	C118.932732,143.341263 101.121117,160.405594 100.768845,185.738480 
	C100.437508,209.565308 100.452599,233.403564 100.765930,257.230896 
	C101.086052,281.574860 119.994904,299.827515 144.338104,299.832275 
	C219.498810,299.847015 294.659515,299.849976 369.820221,299.829620 
	C394.571655,299.822906 413.440247,281.009491 413.497955,256.272583 
	C413.551971,233.107895 413.648285,209.941452 413.399048,186.779297 
	C413.344482,181.707199 411.905975,176.649979 410.928436,170.816330 
M263.500000,115.006966 
	C293.150269,115.007034 322.800537,115.009972 352.450806,115.000725 
	C354.448059,115.000099 356.461731,115.053513 358.439636,114.831322 
	C365.834747,114.000595 370.766113,108.498619 370.911011,101.057297 
	C371.064545,93.174591 366.429230,87.765923 358.604034,86.794113 
	C356.795715,86.569542 354.958313,86.494400 353.134247,86.493950 
	C289.003082,86.478104 224.871933,86.475517 160.740784,86.495239 
	C158.586578,86.495903 156.397491,86.547478 154.285080,86.918961 
	C148.857071,87.873520 145.337479,91.102646 143.930878,96.446770 
	C141.138489,107.055908 147.504669,114.960587 159.057327,114.983017 
	C193.538116,115.049950 228.019089,115.007004 263.500000,115.006966 
M111.972252,348.382172 
	C101.921234,356.851074 98.386757,367.979553 102.073074,379.550171 
	C105.483131,390.253632 115.498871,398.348999 126.206276,399.056183 
	C138.897537,399.894409 149.420746,394.004486 154.778793,383.063934 
	C160.047852,372.305023 157.303284,358.261322 148.344376,350.139618 
	C138.262009,340.999420 124.960159,340.176331 111.972252,348.382172 
M402.654663,348.778290 
	C392.291595,341.089081 379.096222,340.543945 369.176147,347.395233 
	C359.254150,354.247864 354.506287,366.903320 357.675690,378.049866 
	C361.025116,389.829559 370.889130,398.293304 382.152405,399.052094 
	C395.390869,399.943909 406.536255,393.328369 411.337372,381.728912 
	C416.059113,370.321167 413.019562,358.109833 402.654663,348.778290 
z"/>
<path fill="#FEFEFE" opacity="1.000000" stroke="none" 
	d="
M411.016632,171.201111 
	C411.905975,176.649979 413.344482,181.707199 413.399048,186.779297 
	C413.648285,209.941452 413.551971,233.107895 413.497955,256.272583 
	C413.440247,281.009491 394.571655,299.822906 369.820221,299.829620 
	C294.659515,299.849976 219.498810,299.847015 144.338104,299.832275 
	C119.994904,299.827515 101.086052,281.574860 100.765930,257.230896 
	C100.452599,233.403564 100.437508,209.565308 100.768845,185.738480 
	C101.121117,160.405594 118.932732,143.341263 145.722198,143.250366 
	C219.882126,142.998718 294.043518,143.119949 368.204224,143.191666 
	C388.277618,143.211075 402.959656,151.907394 411.016632,171.201111 
M335.997742,240.374481 
	C335.997742,233.609695 335.997742,226.844894 335.997742,220.080109 
	C336.616577,219.963287 337.235443,219.846481 337.854279,219.729660 
	C341.155609,227.657578 341.127045,236.521271 343.556061,244.997162 
	C350.109283,244.997162 356.765015,244.708908 363.381073,245.097107 
	C367.893829,245.361908 369.289642,243.499756 369.015350,239.442062 
	C368.964661,238.691788 369.141632,237.926147 369.205261,237.254669 
	C372.349884,237.254669 375.113983,237.254669 377.528961,237.254669 
	C378.167358,240.029205 378.732758,242.486679 379.240692,244.694321 
	C383.441498,244.694321 387.186768,244.694321 391.194794,244.694321 
	C387.913055,226.212875 384.853638,208.040863 381.389221,189.946396 
	C380.042297,182.911499 379.626038,182.991516 371.903259,183.002106 
	C370.421448,183.004135 368.939636,183.002411 367.022858,183.002411 
	C363.544067,202.308624 360.096100,221.443802 356.441650,241.725037 
	C354.791565,234.747162 353.200226,228.879608 352.060730,222.925598 
	C351.152130,218.177643 349.664459,213.133530 350.436676,208.558975 
	C351.868744,200.075378 354.763885,191.838776 357.120850,183.240051 
	C352.585449,183.240051 348.351532,183.240051 344.392090,183.240051 
	C341.626892,191.943054 341.107391,201.019913 337.227173,209.054581 
	C336.747711,208.958084 336.268250,208.861588 335.788788,208.765076 
	C335.788788,200.198288 335.788788,191.631485 335.788788,183.356308 
	C331.555969,183.356308 327.817444,183.356308 324.338623,183.356308 
	C324.338623,204.106308 324.338623,224.501160 324.338623,244.997345 
	C327.332062,244.997345 330.012573,244.778732 332.641296,245.054245 
	C335.729675,245.377930 336.384491,243.940369 335.997742,240.374481 
M298.997406,227.670715 
	C298.997406,225.623474 298.997406,223.576248 298.997406,221.529007 
	C299.205872,221.513245 299.414307,221.497467 299.622772,221.481689 
	C301.586945,229.320694 303.551147,237.159714 305.460632,244.780487 
	C309.760620,244.780487 313.706085,244.780487 317.781555,244.780487 
	C317.781555,224.161285 317.781555,203.759552 317.781555,183.221588 
	C313.826202,183.221588 310.089233,183.221588 305.974579,183.221588 
	C305.974579,191.447449 305.974579,199.461151 305.974579,207.474854 
	C304.105804,202.424225 302.980133,197.287491 301.608765,192.217224 
	C299.066650,182.818558 299.006744,182.831345 289.140106,183.057312 
	C288.863373,183.063644 288.592590,183.329391 288.238403,183.516861 
	C288.238403,203.879547 288.238403,224.282730 288.238403,244.758118 
	C291.882568,244.758118 295.285919,244.758118 298.997314,244.758118 
	C298.997314,239.225754 298.997314,233.926910 298.997406,227.670715 
M184.034576,227.311325 
	C184.562347,226.537308 185.077835,225.754578 185.620422,224.991089 
	C186.738449,223.417862 188.800781,221.881454 188.846405,220.283386 
	C189.141113,209.959686 189.008759,199.623459 188.990143,189.291367 
	C188.983948,185.855972 186.976425,183.299194 183.887344,183.157242 
	C175.316971,182.763351 166.716660,183.020645 158.330032,183.020645 
	C158.330032,204.063919 158.330032,224.470779 158.330032,244.662170 
	C162.405945,244.662170 166.145203,244.662170 170.486237,244.662170 
	C170.486237,237.894775 170.486237,231.457611 170.486237,225.020432 
	C170.783325,225.010803 171.080399,225.001160 171.377487,224.991516 
	C173.380188,231.632767 175.382904,238.274017 177.322601,244.706345 
	C181.713348,244.706345 185.779205,244.706345 190.069901,244.706345 
	C188.135666,238.913849 186.312836,233.454971 184.034576,227.311325 
M277.962006,207.790421 
	C276.973877,202.724564 275.649994,197.696777 275.070221,192.584610 
	C273.989624,183.056015 274.120544,182.989960 264.703033,183.001831 
	C263.228241,183.003677 261.753448,183.002090 260.025604,183.002090 
	C256.282074,203.719543 252.591019,224.146637 248.894470,244.604065 
	C261.344482,245.904984 261.344482,245.904984 262.461487,237.207855 
	C265.212830,237.207855 267.974487,237.207855 270.544281,237.207855 
	C271.139984,239.909897 271.683960,242.377319 272.210693,244.766571 
	C276.319946,244.766571 280.095337,244.766571 284.182190,244.766571 
	C283.583618,241.324509 283.023621,238.148621 282.480011,234.969925 
	C280.981262,226.205948 279.489349,217.440826 277.962006,207.790421 
M140.002167,230.339005 
	C139.055328,231.226730 138.161240,232.803085 137.152328,232.880356 
	C133.242630,233.179901 129.296371,233.002213 125.281998,233.002213 
	C125.590439,233.983063 125.899445,234.599686 125.969147,235.242249 
	C127.027206,244.996750 127.019875,244.997574 136.484558,244.997528 
	C139.147812,244.997513 141.864075,245.330322 144.461517,244.916840 
	C148.100906,244.337509 151.977341,243.549606 151.990845,238.531326 
	C152.013229,230.208740 152.231461,221.873611 151.791748,213.574249 
	C151.707214,211.978638 149.177612,209.584198 147.421204,209.206009 
	C144.142792,208.500107 140.604080,209.003204 137.288177,209.003204 
	C137.288177,204.003143 137.288177,199.599579 137.288177,194.876038 
	C142.346390,194.876038 147.117325,194.876038 152.109634,194.876038 
	C151.303070,190.750504 150.567856,186.989960 149.788269,183.002502 
	C143.771790,183.002502 137.962601,182.943039 132.155228,183.020615 
	C127.197639,183.086838 125.065605,185.231857 125.020653,190.227875 
	C124.951767,197.884079 125.212959,205.549362 124.923233,213.195206 
	C124.750519,217.753220 127.193375,218.877884 130.892990,218.980972 
	C133.833084,219.062897 136.777267,218.997498 140.002441,218.997498 
	C140.002441,222.777313 140.002441,226.074402 140.002167,230.339005 
M222.002502,206.500031 
	C222.002502,219.253357 222.002502,232.006683 222.002502,244.763947 
	C229.978287,244.763947 237.403854,244.763947 244.741638,244.763947 
	C245.355774,240.753937 245.933044,236.984634 246.575195,232.791763 
	C242.321945,232.791763 238.235779,232.791763 233.798462,232.791763 
	C233.798462,215.990860 233.798462,199.593719 233.798462,183.295288 
	C229.674042,183.295288 225.936203,183.295288 222.002502,183.295288 
	C222.002502,190.891174 222.002502,198.195618 222.002502,206.500031 
M194.002502,214.500000 
	C194.002502,224.596878 194.002502,234.693756 194.002502,244.708954 
	C198.315445,244.708954 202.055191,244.708954 205.714447,244.708954 
	C205.714447,224.018295 205.714447,203.617310 205.714447,183.290634 
	C201.685440,183.290634 197.946442,183.290634 194.002502,183.290634 
	C194.002502,193.551758 194.002502,203.525879 194.002502,214.500000 
z"/>
<path fill="#FBFBFB" opacity="1.000000" stroke="none" 
	d="
M263.000000,115.006966 
	C228.019089,115.007004 193.538116,115.049950 159.057327,114.983017 
	C147.504669,114.960587 141.138489,107.055908 143.930878,96.446770 
	C145.337479,91.102646 148.857071,87.873520 154.285080,86.918961 
	C156.397491,86.547478 158.586578,86.495903 160.740784,86.495239 
	C224.871933,86.475517 289.003082,86.478104 353.134247,86.493950 
	C354.958313,86.494400 356.795715,86.569542 358.604034,86.794113 
	C366.429230,87.765923 371.064545,93.174591 370.911011,101.057297 
	C370.766113,108.498619 365.834747,114.000595 358.439636,114.831322 
	C356.461731,115.053513 354.448059,115.000099 352.450806,115.000725 
	C322.800537,115.009972 293.150269,115.007034 263.000000,115.006966 
z"/>
<path fill="#FDFDFD" opacity="1.000000" stroke="none" 
	d="
M112.259674,348.153351 
	C124.960159,340.176331 138.262009,340.999420 148.344376,350.139618 
	C157.303284,358.261322 160.047852,372.305023 154.778793,383.063934 
	C149.420746,394.004486 138.897537,399.894409 126.206276,399.056183 
	C115.498871,398.348999 105.483131,390.253632 102.073074,379.550171 
	C98.386757,367.979553 101.921234,356.851074 112.259674,348.153351 
z"/>
<path fill="#FDFDFD" opacity="1.000000" stroke="none" 
	d="
M402.947571,348.989136 
	C413.019562,358.109833 416.059113,370.321167 411.337372,381.728912 
	C406.536255,393.328369 395.390869,399.943909 382.152405,399.052094 
	C370.889130,398.293304 361.025116,389.829559 357.675690,378.049866 
	C354.506287,366.903320 359.254150,354.247864 369.176147,347.395233 
	C379.096222,340.543945 392.291595,341.089081 402.947571,348.989136 
z"/>
<path fill="#000000" opacity="1.000000" stroke="none" 
	d="
M335.997681,240.859055 
	C336.384491,243.940369 335.729675,245.377930 332.641296,245.054245 
	C330.012573,244.778732 327.332062,244.997345 324.338623,244.997345 
	C324.338623,224.501160 324.338623,204.106308 324.338623,183.356308 
	C327.817444,183.356308 331.555969,183.356308 335.788788,183.356308 
	C335.788788,191.631485 335.788788,200.198288 335.788788,208.765076 
	C336.268250,208.861588 336.747711,208.958084 337.227173,209.054581 
	C341.107391,201.019913 341.626892,191.943054 344.392090,183.240051 
	C348.351532,183.240051 352.585449,183.240051 357.120850,183.240051 
	C354.763885,191.838776 351.868744,200.075378 350.436676,208.558975 
	C349.664459,213.133530 351.152130,218.177643 352.060730,222.925598 
	C353.200226,228.879608 354.791565,234.747162 356.441650,241.725037 
	C360.096100,221.443802 363.544067,202.308624 367.022858,183.002411 
	C368.939636,183.002411 370.421448,183.004135 371.903259,183.002106 
	C379.626038,182.991516 380.042297,182.911499 381.389221,189.946396 
	C384.853638,208.040863 387.913055,226.212875 391.194794,244.694321 
	C387.186768,244.694321 383.441498,244.694321 379.240692,244.694321 
	C378.732758,242.486679 378.167358,240.029205 377.528961,237.254669 
	C375.113983,237.254669 372.349884,237.254669 369.205261,237.254669 
	C369.141632,237.926147 368.964661,238.691788 369.015350,239.442062 
	C369.289642,243.499756 367.893829,245.361908 363.381073,245.097107 
	C356.765015,244.708908 350.109283,244.997162 343.556061,244.997162 
	C341.127045,236.521271 341.155609,227.657578 337.854279,219.729660 
	C337.235443,219.846481 336.616577,219.963287 335.997742,220.080109 
	C335.997742,226.844894 335.997742,233.609695 335.997681,240.859055 
M375.002686,218.288620 
	C374.611115,214.327591 374.219574,210.366562 373.828003,206.405533 
	C373.686951,206.425278 373.545929,206.445023 373.404877,206.464767 
	C372.548279,213.148895 371.691681,219.833038 370.814423,226.678207 
	C372.840637,226.678207 374.354553,226.678207 376.424652,226.678207 
	C375.913055,223.921387 375.475037,221.561310 375.002686,218.288620 
z"/>
<path fill="#000000" opacity="1.000000" stroke="none" 
	d="
M298.997375,228.149384 
	C298.997314,233.926910 298.997314,239.225754 298.997314,244.758118 
	C295.285919,244.758118 291.882568,244.758118 288.238403,244.758118 
	C288.238403,224.282730 288.238403,203.879547 288.238403,183.516861 
	C288.592590,183.329391 288.863373,183.063644 289.140106,183.057312 
	C299.006744,182.831345 299.066650,182.818558 301.608765,192.217224 
	C302.980133,197.287491 304.105804,202.424225 305.974579,207.474854 
	C305.974579,199.461151 305.974579,191.447449 305.974579,183.221588 
	C310.089233,183.221588 313.826202,183.221588 317.781555,183.221588 
	C317.781555,203.759552 317.781555,224.161285 317.781555,244.780487 
	C313.706085,244.780487 309.760620,244.780487 305.460632,244.780487 
	C303.551147,237.159714 301.586945,229.320694 299.622772,221.481689 
	C299.414307,221.497467 299.205872,221.513245 298.997406,221.529007 
	C298.997406,223.576248 298.997406,225.623474 298.997375,228.149384 
z"/>
<path fill="#000000" opacity="1.000000" stroke="none" 
	d="
M184.262299,227.653717 
	C186.312836,233.454971 188.135666,238.913849 190.069901,244.706345 
	C185.779205,244.706345 181.713348,244.706345 177.322601,244.706345 
	C175.382904,238.274017 173.380188,231.632767 171.377487,224.991516 
	C171.080399,225.001160 170.783325,225.010803 170.486237,225.020432 
	C170.486237,231.457611 170.486237,237.894775 170.486237,244.662170 
	C166.145203,244.662170 162.405945,244.662170 158.330032,244.662170 
	C158.330032,224.470779 158.330032,204.063919 158.330032,183.020645 
	C166.716660,183.020645 175.316971,182.763351 183.887344,183.157242 
	C186.976425,183.299194 188.983948,185.855972 188.990143,189.291367 
	C189.008759,199.623459 189.141113,209.959686 188.846405,220.283386 
	C188.800781,221.881454 186.738449,223.417862 185.620422,224.991089 
	C185.077835,225.754578 184.562347,226.537308 184.262299,227.653717 
M172.559326,214.999405 
	C173.974014,214.925964 175.388687,214.852524 176.769928,214.780823 
	C176.769928,207.708115 176.769928,201.002625 176.769928,194.205673 
	C174.477402,194.205673 172.420319,194.205673 170.003036,194.205673 
	C170.003036,200.648239 169.957291,206.892731 170.073288,213.134186 
	C170.084991,213.763794 171.074356,214.375214 172.559326,214.999405 
z"/>
<path fill="#000000" opacity="1.000000" stroke="none" 
	d="
M277.978394,208.233276 
	C279.489349,217.440826 280.981262,226.205948 282.480011,234.969925 
	C283.023621,238.148621 283.583618,241.324509 284.182190,244.766571 
	C280.095337,244.766571 276.319946,244.766571 272.210693,244.766571 
	C271.683960,242.377319 271.139984,239.909897 270.544281,237.207855 
	C267.974487,237.207855 265.212830,237.207855 262.461487,237.207855 
	C261.344482,245.904984 261.344482,245.904984 248.894470,244.604065 
	C252.591019,224.146637 256.282074,203.719543 260.025604,183.002090 
	C261.753448,183.002090 263.228241,183.003677 264.703033,183.001831 
	C274.120544,182.989960 273.989624,183.056015 275.070221,192.584610 
	C275.649994,197.696777 276.973877,202.724564 277.978394,208.233276 
M268.000061,216.469193 
	C267.577179,213.128799 267.154297,209.788406 266.563751,205.123703 
	C265.549133,213.232544 264.704437,219.983566 263.859161,226.739090 
	C265.960938,226.739090 267.361359,226.739090 269.326416,226.739090 
	C268.852753,223.396530 268.426483,220.388199 268.000061,216.469193 
z"/>
<path fill="#000000" opacity="1.000000" stroke="none" 
	d="
M140.002304,229.855255 
	C140.002441,226.074402 140.002441,222.777313 140.002441,218.997498 
	C136.777267,218.997498 133.833084,219.062897 130.892990,218.980972 
	C127.193375,218.877884 124.750519,217.753220 124.923233,213.195206 
	C125.212959,205.549362 124.951767,197.884079 125.020653,190.227875 
	C125.065605,185.231857 127.197639,183.086838 132.155228,183.020615 
	C137.962601,182.943039 143.771790,183.002502 149.788269,183.002502 
	C150.567856,186.989960 151.303070,190.750504 152.109634,194.876038 
	C147.117325,194.876038 142.346390,194.876038 137.288177,194.876038 
	C137.288177,199.599579 137.288177,204.003143 137.288177,209.003204 
	C140.604080,209.003204 144.142792,208.500107 147.421204,209.206009 
	C149.177612,209.584198 151.707214,211.978638 151.791748,213.574249 
	C152.231461,221.873611 152.013229,230.208740 151.990845,238.531326 
	C151.977341,243.549606 148.100906,244.337509 144.461517,244.916840 
	C141.864075,245.330322 139.147812,244.997513 136.484558,244.997528 
	C127.019875,244.997574 127.027206,244.996750 125.969147,235.242249 
	C125.899445,234.599686 125.590439,233.983063 125.281998,233.002213 
	C129.296371,233.002213 133.242630,233.179901 137.152328,232.880356 
	C138.161240,232.803085 139.055328,231.226730 140.002304,229.855255 
z"/>
<path fill="#000000" opacity="1.000000" stroke="none" 
	d="
M222.002502,206.000046 
	C222.002502,198.195618 222.002502,190.891174 222.002502,183.295288 
	C225.936203,183.295288 229.674042,183.295288 233.798462,183.295288 
	C233.798462,199.593719 233.798462,215.990860 233.798462,232.791763 
	C238.235779,232.791763 242.321945,232.791763 246.575195,232.791763 
	C245.933044,236.984634 245.355774,240.753937 244.741638,244.763947 
	C237.403854,244.763947 229.978287,244.763947 222.002502,244.763947 
	C222.002502,232.006683 222.002502,219.253357 222.002502,206.000046 
z"/>
<path fill="#000000" opacity="1.000000" stroke="none" 
	d="
M194.002502,214.000000 
	C194.002502,203.525879 194.002502,193.551758 194.002502,183.290634 
	C197.946442,183.290634 201.685440,183.290634 205.714447,183.290634 
	C205.714447,203.617310 205.714447,224.018295 205.714447,244.708954 
	C202.055191,244.708954 198.315445,244.708954 194.002502,244.708954 
	C194.002502,234.693756 194.002502,224.596878 194.002502,214.000000 
z"/>
<path fill="#FFFFFF" opacity="1.000000" stroke="none" 
	d="
M375.019867,218.744934 
	C375.475037,221.561310 375.913055,223.921387 376.424652,226.678207 
	C374.354553,226.678207 372.840637,226.678207 370.814423,226.678207 
	C371.691681,219.833038 372.548279,213.148895 373.404877,206.464767 
	C373.545929,206.445023 373.686951,206.425278 373.828003,206.405533 
	C374.219574,210.366562 374.611115,214.327591 375.019867,218.744934 
z"/>
<path fill="#FFFFFF" opacity="1.000000" stroke="none" 
	d="
M172.084686,214.997223 
	C171.074356,214.375214 170.084991,213.763794 170.073288,213.134186 
	C169.957291,206.892731 170.003036,200.648239 170.003036,194.205673 
	C172.420319,194.205673 174.477402,194.205673 176.769928,194.205673 
	C176.769928,201.002625 176.769928,207.708115 176.769928,214.780823 
	C175.388687,214.852524 173.974014,214.925964 172.084686,214.997223 
z"/>
<path fill="#FFFFFF" opacity="1.000000" stroke="none" 
	d="
M268.000122,216.924530 
	C268.426483,220.388199 268.852753,223.396530 269.326416,226.739090 
	C267.361359,226.739090 265.960938,226.739090 263.859161,226.739090 
	C264.704437,219.983566 265.549133,213.232544 266.563751,205.123703 
	C267.154297,209.788406 267.577179,213.128799 268.000122,216.924530 
z"/>
</svg>